<mxfile host="app.diagrams.net" modified="2024-05-13T03:44:29.365Z" agent="Mozilla/5.0 (Windows NT 10.0; Win64; x64; rv:125.0) Gecko/20100101 Firefox/125.0" version="24.4.0" etag="5WWryDerzRRzPWcoqGBQ" type="github">
  <diagram name="Page-1" id="z3FNkRx8i-oTFvDtVT5w">
    <mxGraphModel>
      <root>
        <mxCell id="0" />
        <mxCell id="1" parent="0" />
      </root>
    </mxGraphModel>
  </diagram>
</mxfile>
